<mxfile host="app.diagrams.net" modified="2020-09-04T08:43:20.881Z" agent="5.0 (Windows NT 10.0; Win64; x64) AppleWebKit/537.36 (KHTML, like Gecko) Chrome/84.0.4147.89 Safari/537.36" etag="rKErye29g7TkvbK9CSjP" version="13.6.5" type="github">
  <diagram id="UNWl-Jj_ICaHGReqZu83" name="Page-1">
    <mxGraphModel dx="2130" dy="1028" grid="1" gridSize="10" guides="1" tooltips="1" connect="1" arrows="1" fold="1" page="1" pageScale="1" pageWidth="10000" pageHeight="10000" background="none" math="0" shadow="0">
      <root>
        <mxCell id="0" />
        <mxCell id="1" parent="0" />
        <mxCell id="sEn4KuBhREEQvSgs9PXj-1" value="&lt;font style=&quot;font-size: 20px&quot;&gt;lvl 2&lt;/font&gt;" style="text;html=1;strokeColor=none;fillColor=none;align=center;verticalAlign=middle;whiteSpace=wrap;rounded=0;" parent="1" vertex="1">
          <mxGeometry x="400" y="10" width="275" height="110" as="geometry" />
        </mxCell>
        <mxCell id="QyOn7p77WutKCdOKZBRD-1" value="&lt;font style=&quot;font-size: 14px&quot;&gt;Inside Hospital:&lt;br&gt;Patient&lt;br&gt;treatment&lt;/font&gt;" style="ellipse;whiteSpace=wrap;html=1;aspect=fixed;gradientDirection=south;strokeWidth=4;perimeterSpacing=3;shadow=1;sketch=0;gradientColor=#ea6b66;fillColor=#f8cecc;" parent="1" vertex="1">
          <mxGeometry x="390" y="330" width="120" height="120" as="geometry" />
        </mxCell>
        <mxCell id="QyOn7p77WutKCdOKZBRD-2" value="&lt;font style=&quot;font-size: 18px&quot;&gt;Data base&lt;/font&gt;" style="shape=partialRectangle;whiteSpace=wrap;html=1;left=0;right=0;fillColor=none;strokeWidth=5;" parent="1" vertex="1">
          <mxGeometry x="390" y="220" width="120" height="60" as="geometry" />
        </mxCell>
        <mxCell id="QyOn7p77WutKCdOKZBRD-3" value="" style="endArrow=classic;html=1;exitX=0.64;exitY=0.027;exitDx=0;exitDy=0;exitPerimeter=0;strokeWidth=2;" parent="1" source="QyOn7p77WutKCdOKZBRD-1" edge="1">
          <mxGeometry width="50" height="50" relative="1" as="geometry">
            <mxPoint x="460" y="340" as="sourcePoint" />
            <mxPoint x="467" y="285" as="targetPoint" />
          </mxGeometry>
        </mxCell>
        <mxCell id="QyOn7p77WutKCdOKZBRD-4" value="" style="endArrow=classic;html=1;exitX=0.387;exitY=1.047;exitDx=0;exitDy=0;exitPerimeter=0;entryX=0.38;entryY=0.02;entryDx=0;entryDy=0;entryPerimeter=0;strokeWidth=2;" parent="1" source="QyOn7p77WutKCdOKZBRD-2" target="QyOn7p77WutKCdOKZBRD-1" edge="1">
          <mxGeometry width="50" height="50" relative="1" as="geometry">
            <mxPoint x="290" y="350" as="sourcePoint" />
            <mxPoint x="340" y="300" as="targetPoint" />
          </mxGeometry>
        </mxCell>
        <mxCell id="QyOn7p77WutKCdOKZBRD-5" value="" style="endArrow=classic;html=1;exitX=1;exitY=0.5;exitDx=0;exitDy=0;strokeWidth=4;" parent="1" source="QyOn7p77WutKCdOKZBRD-1" edge="1">
          <mxGeometry width="50" height="50" relative="1" as="geometry">
            <mxPoint x="520" y="430" as="sourcePoint" />
            <mxPoint x="600" y="450" as="targetPoint" />
          </mxGeometry>
        </mxCell>
        <mxCell id="QyOn7p77WutKCdOKZBRD-22" style="edgeStyle=orthogonalEdgeStyle;rounded=0;orthogonalLoop=1;jettySize=auto;html=1;entryX=0;entryY=0.5;entryDx=0;entryDy=0;strokeWidth=4;" parent="1" source="QyOn7p77WutKCdOKZBRD-6" target="QyOn7p77WutKCdOKZBRD-19" edge="1">
          <mxGeometry relative="1" as="geometry" />
        </mxCell>
        <mxCell id="QyOn7p77WutKCdOKZBRD-6" value="&lt;font style=&quot;font-size: 16px&quot;&gt;Health Card&lt;/font&gt;" style="ellipse;whiteSpace=wrap;html=1;aspect=fixed;fillColor=#d5e8d4;strokeWidth=3;gradientColor=#97d077;gradientDirection=east;shadow=1;" parent="1" vertex="1">
          <mxGeometry x="590" y="420" width="130" height="130" as="geometry" />
        </mxCell>
        <mxCell id="QyOn7p77WutKCdOKZBRD-7" value="&lt;font style=&quot;font-size: 15px&quot;&gt;Patient coming in&lt;br&gt;for treatment&amp;nbsp;&lt;/font&gt;" style="ellipse;whiteSpace=wrap;html=1;aspect=fixed;fillColor=#dae8fc;strokeWidth=3;gradientColor=#6666FF;shadow=1;" parent="1" vertex="1">
          <mxGeometry x="390" y="590" width="130" height="130" as="geometry" />
        </mxCell>
        <mxCell id="QyOn7p77WutKCdOKZBRD-8" value="&lt;font style=&quot;font-size: 16px&quot;&gt;Data base&lt;/font&gt;" style="shape=partialRectangle;whiteSpace=wrap;html=1;left=0;right=0;fillColor=none;strokeWidth=6;" parent="1" vertex="1">
          <mxGeometry x="400" y="790" width="120" height="60" as="geometry" />
        </mxCell>
        <mxCell id="QyOn7p77WutKCdOKZBRD-10" value="" style="endArrow=classic;html=1;exitX=1;exitY=0.385;exitDx=0;exitDy=0;exitPerimeter=0;entryX=0.246;entryY=0.969;entryDx=0;entryDy=0;entryPerimeter=0;strokeWidth=4;" parent="1" source="QyOn7p77WutKCdOKZBRD-7" target="QyOn7p77WutKCdOKZBRD-6" edge="1">
          <mxGeometry width="50" height="50" relative="1" as="geometry">
            <mxPoint x="570" y="630" as="sourcePoint" />
            <mxPoint x="620" y="580" as="targetPoint" />
          </mxGeometry>
        </mxCell>
        <mxCell id="QyOn7p77WutKCdOKZBRD-11" value="" style="endArrow=classic;html=1;exitX=1;exitY=0.5;exitDx=0;exitDy=0;strokeWidth=2;" parent="1" source="QyOn7p77WutKCdOKZBRD-12" edge="1">
          <mxGeometry width="50" height="50" relative="1" as="geometry">
            <mxPoint x="220" y="660" as="sourcePoint" />
            <mxPoint x="387" y="655" as="targetPoint" />
          </mxGeometry>
        </mxCell>
        <mxCell id="QyOn7p77WutKCdOKZBRD-12" value="&lt;font style=&quot;font-size: 15px&quot;&gt;Home&lt;/font&gt;" style="rounded=0;whiteSpace=wrap;html=1;fillColor=#ffcd28;gradientColor=#FF33FF;strokeWidth=3;shadow=1;" parent="1" vertex="1">
          <mxGeometry x="100" y="625" width="120" height="60" as="geometry" />
        </mxCell>
        <mxCell id="QyOn7p77WutKCdOKZBRD-13" value="&lt;font style=&quot;font-size: 14px&quot;&gt;Patient coming for checkup&lt;/font&gt;" style="text;html=1;strokeColor=none;fillColor=none;align=center;verticalAlign=middle;whiteSpace=wrap;rounded=0;" parent="1" vertex="1">
          <mxGeometry x="250" y="600" width="110" height="55" as="geometry" />
        </mxCell>
        <mxCell id="QyOn7p77WutKCdOKZBRD-14" value="&lt;font style=&quot;font-size: 14px&quot;&gt;Patient report&lt;/font&gt;" style="text;html=1;strokeColor=none;fillColor=none;align=center;verticalAlign=middle;whiteSpace=wrap;rounded=0;" parent="1" vertex="1">
          <mxGeometry x="575" y="600" width="50" height="25" as="geometry" />
        </mxCell>
        <mxCell id="QyOn7p77WutKCdOKZBRD-15" value="&lt;font style=&quot;font-size: 14px&quot;&gt;Patient report&lt;/font&gt;" style="text;html=1;strokeColor=none;fillColor=none;align=center;verticalAlign=middle;whiteSpace=wrap;rounded=0;" parent="1" vertex="1">
          <mxGeometry x="540" y="368.75" width="50" height="42.5" as="geometry" />
        </mxCell>
        <mxCell id="QyOn7p77WutKCdOKZBRD-16" value="" style="endArrow=classic;html=1;entryX=0.643;entryY=0.999;entryDx=0;entryDy=0;entryPerimeter=0;strokeWidth=2;" parent="1" target="QyOn7p77WutKCdOKZBRD-7" edge="1">
          <mxGeometry width="50" height="50" relative="1" as="geometry">
            <mxPoint x="474" y="786" as="sourcePoint" />
            <mxPoint x="520" y="730" as="targetPoint" />
          </mxGeometry>
        </mxCell>
        <mxCell id="QyOn7p77WutKCdOKZBRD-18" value="" style="endArrow=classic;html=1;entryX=0.25;entryY=0;entryDx=0;entryDy=0;exitX=0.308;exitY=0.981;exitDx=0;exitDy=0;exitPerimeter=0;strokeWidth=2;" parent="1" source="QyOn7p77WutKCdOKZBRD-7" target="QyOn7p77WutKCdOKZBRD-8" edge="1">
          <mxGeometry width="50" height="50" relative="1" as="geometry">
            <mxPoint x="410" y="790" as="sourcePoint" />
            <mxPoint x="460" y="740" as="targetPoint" />
          </mxGeometry>
        </mxCell>
        <mxCell id="QyOn7p77WutKCdOKZBRD-26" style="edgeStyle=orthogonalEdgeStyle;rounded=0;orthogonalLoop=1;jettySize=auto;html=1;strokeWidth=4;" parent="1" source="QyOn7p77WutKCdOKZBRD-19" target="QyOn7p77WutKCdOKZBRD-24" edge="1">
          <mxGeometry relative="1" as="geometry" />
        </mxCell>
        <mxCell id="QyOn7p77WutKCdOKZBRD-19" value="&lt;font style=&quot;font-size: 16px&quot;&gt;Doctor&lt;/font&gt;" style="rounded=0;whiteSpace=wrap;html=1;fillColor=#dae8fc;gradientColor=#7ea6e0;strokeWidth=3;shadow=1;glass=0;sketch=0;" parent="1" vertex="1">
          <mxGeometry x="830" y="455" width="120" height="60" as="geometry" />
        </mxCell>
        <mxCell id="QyOn7p77WutKCdOKZBRD-21" value="&lt;font style=&quot;font-size: 14px&quot;&gt;Health card checked by doctor&lt;/font&gt;" style="text;html=1;strokeColor=none;fillColor=none;align=center;verticalAlign=middle;whiteSpace=wrap;rounded=0;" parent="1" vertex="1">
          <mxGeometry x="720" y="411.25" width="100" height="71" as="geometry" />
        </mxCell>
        <mxCell id="QyOn7p77WutKCdOKZBRD-29" style="edgeStyle=orthogonalEdgeStyle;rounded=0;orthogonalLoop=1;jettySize=auto;html=1;entryX=0;entryY=0.5;entryDx=0;entryDy=0;strokeWidth=4;" parent="1" source="QyOn7p77WutKCdOKZBRD-24" target="QyOn7p77WutKCdOKZBRD-28" edge="1">
          <mxGeometry relative="1" as="geometry" />
        </mxCell>
        <mxCell id="QyOn7p77WutKCdOKZBRD-24" value="&lt;font style=&quot;font-size: 14px&quot;&gt;Operation time&lt;/font&gt;" style="ellipse;whiteSpace=wrap;html=1;aspect=fixed;fillColor=#ffcc99;strokeColor=#36393d;strokeWidth=3;shadow=1;" parent="1" vertex="1">
          <mxGeometry x="1040" y="425" width="120" height="120" as="geometry" />
        </mxCell>
        <mxCell id="QyOn7p77WutKCdOKZBRD-33" style="edgeStyle=orthogonalEdgeStyle;rounded=0;orthogonalLoop=1;jettySize=auto;html=1;entryX=0.5;entryY=0;entryDx=0;entryDy=0;strokeWidth=4;" parent="1" source="QyOn7p77WutKCdOKZBRD-28" target="QyOn7p77WutKCdOKZBRD-31" edge="1">
          <mxGeometry relative="1" as="geometry" />
        </mxCell>
        <mxCell id="QyOn7p77WutKCdOKZBRD-28" value="&lt;font style=&quot;font-size: 16px&quot;&gt;Patient&lt;/font&gt;" style="rounded=0;whiteSpace=wrap;html=1;strokeWidth=3;strokeColor=#36393d;fillColor=#CC99FF;gradientColor=#CC99FF;shadow=1;" parent="1" vertex="1">
          <mxGeometry x="1280" y="455" width="120" height="60" as="geometry" />
        </mxCell>
        <mxCell id="QyOn7p77WutKCdOKZBRD-30" value="&lt;font style=&quot;font-size: 15px&quot;&gt;After checking medicines are given&lt;/font&gt;" style="text;html=1;strokeColor=none;fillColor=none;align=center;verticalAlign=middle;whiteSpace=wrap;rounded=0;" parent="1" vertex="1">
          <mxGeometry x="1170" y="420" width="90" height="50" as="geometry" />
        </mxCell>
        <mxCell id="SsPjynfacfPcnSxduak7-1" style="edgeStyle=orthogonalEdgeStyle;rounded=0;orthogonalLoop=1;jettySize=auto;html=1;entryX=1;entryY=0.5;entryDx=0;entryDy=0;strokeWidth=3;" parent="1" source="QyOn7p77WutKCdOKZBRD-31" target="QyOn7p77WutKCdOKZBRD-37" edge="1">
          <mxGeometry relative="1" as="geometry" />
        </mxCell>
        <mxCell id="QyOn7p77WutKCdOKZBRD-31" value="&lt;font style=&quot;font-size: 15px&quot;&gt;Billing of patient&lt;/font&gt;" style="ellipse;whiteSpace=wrap;html=1;fillColor=#ffcc99;gradientColor=#FF6666;strokeWidth=3;shadow=1;" parent="1" vertex="1">
          <mxGeometry x="1280" y="615" width="120" height="80" as="geometry" />
        </mxCell>
        <mxCell id="QyOn7p77WutKCdOKZBRD-34" value="&lt;font style=&quot;font-size: 15px&quot;&gt;Calculating&lt;br&gt;receipts&lt;/font&gt;" style="text;html=1;strokeColor=none;fillColor=none;align=center;verticalAlign=middle;whiteSpace=wrap;rounded=0;" parent="1" vertex="1">
          <mxGeometry x="1350" y="540" width="70" height="50" as="geometry" />
        </mxCell>
        <mxCell id="QyOn7p77WutKCdOKZBRD-35" value="&lt;font style=&quot;font-size: 15px&quot;&gt;Database&lt;/font&gt;" style="shape=partialRectangle;whiteSpace=wrap;html=1;left=0;right=0;fillColor=none;strokeWidth=5;" parent="1" vertex="1">
          <mxGeometry x="1280" y="750" width="120" height="60" as="geometry" />
        </mxCell>
        <mxCell id="QyOn7p77WutKCdOKZBRD-40" style="edgeStyle=orthogonalEdgeStyle;rounded=0;orthogonalLoop=1;jettySize=auto;html=1;strokeWidth=3;" parent="1" source="QyOn7p77WutKCdOKZBRD-37" edge="1">
          <mxGeometry relative="1" as="geometry">
            <mxPoint x="160" y="692.2856794084819" as="targetPoint" />
            <Array as="points">
              <mxPoint x="1100" y="1000" />
              <mxPoint x="160" y="1000" />
            </Array>
          </mxGeometry>
        </mxCell>
        <mxCell id="QyOn7p77WutKCdOKZBRD-37" value="&lt;font style=&quot;font-size: 15px&quot;&gt;Generating reports&lt;/font&gt;" style="ellipse;whiteSpace=wrap;html=1;aspect=fixed;fillColor=#ffff88;gradientColor=#99FF33;strokeWidth=3;shadow=1;" parent="1" vertex="1">
          <mxGeometry x="1050" y="605" width="105" height="105" as="geometry" />
        </mxCell>
        <mxCell id="QyOn7p77WutKCdOKZBRD-38" value="" style="endArrow=classic;html=1;exitX=0.625;exitY=1.01;exitDx=0;exitDy=0;exitPerimeter=0;entryX=0.619;entryY=-0.014;entryDx=0;entryDy=0;entryPerimeter=0;strokeWidth=2;" parent="1" source="QyOn7p77WutKCdOKZBRD-31" target="QyOn7p77WutKCdOKZBRD-35" edge="1">
          <mxGeometry width="50" height="50" relative="1" as="geometry">
            <mxPoint x="1350" y="760" as="sourcePoint" />
            <mxPoint x="1400" y="710" as="targetPoint" />
          </mxGeometry>
        </mxCell>
        <mxCell id="QyOn7p77WutKCdOKZBRD-39" value="" style="endArrow=classic;html=1;entryX=0.275;entryY=0.977;entryDx=0;entryDy=0;entryPerimeter=0;strokeWidth=2;" parent="1" target="QyOn7p77WutKCdOKZBRD-31" edge="1">
          <mxGeometry width="50" height="50" relative="1" as="geometry">
            <mxPoint x="1313" y="750" as="sourcePoint" />
            <mxPoint x="1310" y="710" as="targetPoint" />
          </mxGeometry>
        </mxCell>
        <mxCell id="QyOn7p77WutKCdOKZBRD-42" value="&lt;font style=&quot;font-size: 19px&quot;&gt;Patient returning home&lt;/font&gt;" style="text;html=1;strokeColor=none;fillColor=none;align=center;verticalAlign=middle;whiteSpace=wrap;rounded=0;" parent="1" vertex="1">
          <mxGeometry x="540" y="940" width="210" height="60" as="geometry" />
        </mxCell>
        <mxCell id="QyOn7p77WutKCdOKZBRD-43" value="&lt;font style=&quot;font-size: 14px&quot;&gt;Proceeds with operation&lt;/font&gt;" style="text;html=1;strokeColor=none;fillColor=none;align=center;verticalAlign=middle;whiteSpace=wrap;rounded=0;" parent="1" vertex="1">
          <mxGeometry x="970" y="440" width="50" height="35" as="geometry" />
        </mxCell>
        <mxCell id="QyOn7p77WutKCdOKZBRD-44" value="&lt;font style=&quot;font-size: 14px&quot;&gt;Reports are generated&lt;/font&gt;" style="text;html=1;strokeColor=none;fillColor=none;align=center;verticalAlign=middle;whiteSpace=wrap;rounded=0;" parent="1" vertex="1">
          <mxGeometry x="1180" y="610" width="70" height="35" as="geometry" />
        </mxCell>
        <mxCell id="QyOn7p77WutKCdOKZBRD-45" value="" style="endArrow=classic;html=1;entryX=0;entryY=0.5;entryDx=0;entryDy=0;rounded=1;strokeWidth=5;" parent="1" target="QyOn7p77WutKCdOKZBRD-1" edge="1">
          <mxGeometry width="50" height="50" relative="1" as="geometry">
            <mxPoint x="200" y="390" as="sourcePoint" />
            <mxPoint x="310" y="360" as="targetPoint" />
          </mxGeometry>
        </mxCell>
        <mxCell id="QyOn7p77WutKCdOKZBRD-46" value="&lt;font style=&quot;font-size: 21px&quot;&gt;Old lab reports&lt;/font&gt;" style="text;html=1;strokeColor=none;fillColor=none;align=center;verticalAlign=middle;whiteSpace=wrap;rounded=0;" parent="1" vertex="1">
          <mxGeometry x="200" y="330" width="160" height="59" as="geometry" />
        </mxCell>
        <mxCell id="SsPjynfacfPcnSxduak7-8" value="" style="shape=mxgraph.signs.healthcare.first_aid;html=1;fillColor=#000000;strokeColor=none;verticalLabelPosition=bottom;verticalAlign=top;align=center;rounded=0;shadow=1;glass=0;sketch=0;" parent="1" vertex="1">
          <mxGeometry x="1081" y="368.75" width="38" height="39" as="geometry" />
        </mxCell>
        <mxCell id="SsPjynfacfPcnSxduak7-10" value="" style="shape=mxgraph.signs.healthcare.out_patient;html=1;fillColor=#000000;strokeColor=none;verticalLabelPosition=bottom;verticalAlign=top;align=center;rounded=0;shadow=1;glass=0;sketch=0;" parent="1" vertex="1">
          <mxGeometry x="1330" y="341" width="56" height="99" as="geometry" />
        </mxCell>
        <mxCell id="SsPjynfacfPcnSxduak7-11" value="" style="pointerEvents=1;shadow=0;dashed=0;html=1;strokeColor=none;labelPosition=center;verticalLabelPosition=bottom;verticalAlign=top;outlineConnect=0;align=center;shape=mxgraph.office.concepts.home;fillColor=#DA4026;rounded=0;glass=0;sketch=0;" parent="1" vertex="1">
          <mxGeometry x="134" y="560" width="51" height="50" as="geometry" />
        </mxCell>
        <mxCell id="SsPjynfacfPcnSxduak7-13" value="" style="image;html=1;image=img/lib/clip_art/people/Doctor_Man_128x128.png;rounded=0;shadow=1;glass=0;sketch=0;strokeColor=#000000;strokeWidth=3;fillColor=#CC99FF;gradientColor=#6666FF;" parent="1" vertex="1">
          <mxGeometry x="850" y="369" width="80" height="80" as="geometry" />
        </mxCell>
        <mxCell id="SsPjynfacfPcnSxduak7-14" value="" style="aspect=fixed;perimeter=ellipsePerimeter;html=1;align=center;shadow=0;dashed=0;spacingTop=3;image;image=img/lib/active_directory/database_server.svg;rounded=0;glass=0;sketch=0;strokeColor=#000000;strokeWidth=3;fillColor=#CC99FF;gradientColor=#6666FF;" parent="1" vertex="1">
          <mxGeometry x="429" y="150" width="41" height="50" as="geometry" />
        </mxCell>
        <mxCell id="SsPjynfacfPcnSxduak7-15" value="" style="aspect=fixed;perimeter=ellipsePerimeter;html=1;align=center;shadow=0;dashed=0;spacingTop=3;image;image=img/lib/active_directory/database_server.svg;rounded=0;glass=0;sketch=0;strokeColor=#000000;strokeWidth=3;fillColor=#CC99FF;gradientColor=#6666FF;" parent="1" vertex="1">
          <mxGeometry x="1319.5" y="820" width="41" height="50" as="geometry" />
        </mxCell>
        <mxCell id="SsPjynfacfPcnSxduak7-16" value="" style="aspect=fixed;perimeter=ellipsePerimeter;html=1;align=center;shadow=0;dashed=0;spacingTop=3;image;image=img/lib/active_directory/database_server.svg;rounded=0;glass=0;sketch=0;strokeColor=#000000;strokeWidth=3;fillColor=#CC99FF;gradientColor=#6666FF;" parent="1" vertex="1">
          <mxGeometry x="439" y="860" width="41" height="50" as="geometry" />
        </mxCell>
        <mxCell id="SsPjynfacfPcnSxduak7-17" value="" style="pointerEvents=1;shadow=0;dashed=0;html=1;strokeColor=none;fillColor=#005F4B;labelPosition=center;verticalLabelPosition=bottom;verticalAlign=top;align=center;outlineConnect=0;shape=mxgraph.veeam2.report;rounded=0;glass=0;sketch=0;" parent="1" vertex="1">
          <mxGeometry x="1011" y="638" width="28.000000000000004" height="39" as="geometry" />
        </mxCell>
        <mxCell id="SsPjynfacfPcnSxduak7-18" value="" style="shape=image;html=1;verticalAlign=top;verticalLabelPosition=bottom;labelBackgroundColor=#ffffff;imageAspect=0;aspect=fixed;image=https://cdn1.iconfinder.com/data/icons/ios-11-glyphs/30/contact_card-128.png;rounded=0;shadow=1;glass=0;sketch=0;strokeColor=#000000;strokeWidth=3;fillColor=#CC99FF;gradientColor=#6666FF;" parent="1" vertex="1">
          <mxGeometry x="640" y="366" width="48" height="48" as="geometry" />
        </mxCell>
      </root>
    </mxGraphModel>
  </diagram>
</mxfile>
